<svg width="277" height="277" viewBox="0 0 277 277" fill="none" xmlns="http://www.w3.org/2000/svg">
<path d="M277 138.5C277 214.991 214.991 277 138.5 277C62.0086 277 0 214.991 0 138.5C0 62.0086 62.0086 0 138.5 0C214.991 0 277 62.0086 277 138.5Z" fill="#FDCD8A"/>
<path fill-rule="evenodd" clip-rule="evenodd" d="M108.063 70.3743C113.535 71.1218 117.364 76.1638 116.617 81.6358L106.709 80.2822C116.617 81.6358 116.617 81.6378 116.616 81.64L116.614 81.6554L116.61 81.6828L116.599 81.7613C116.59 81.8238 116.578 81.9068 116.563 82.0092C116.532 82.2138 116.488 82.4962 116.43 82.8475C116.314 83.5493 116.141 84.5312 115.902 85.7217C115.426 88.0881 114.675 91.3515 113.57 94.9141C111.559 101.39 107.649 111.371 100.081 117.197C94.4243 121.553 86.6962 123.57 81.6784 124.576C78.9387 125.126 76.4824 125.469 74.7098 125.676C73.8183 125.78 73.0866 125.851 72.5628 125.898C72.3006 125.921 72.0895 125.938 71.9355 125.95C71.8585 125.955 71.7957 125.96 71.7478 125.963L71.6873 125.967L71.6655 125.969L71.653 125.97C71.653 125.97 71.6496 125.97 71 115.991L71.6496 125.97C66.1384 126.329 61.3799 122.152 61.0212 116.641C60.6627 111.134 64.8324 106.379 70.3367 106.013L70.3474 106.012L70.3447 106.013L70.4179 106.007C70.4957 106.001 70.6264 105.991 70.8045 105.975C71.1612 105.944 71.7039 105.891 72.3881 105.811C73.7667 105.65 75.6665 105.384 77.746 104.967C82.3664 104.04 86.1288 102.699 87.8807 101.35C90.1103 99.6333 92.5646 95.1182 94.4687 88.9846C95.32 86.2422 95.914 83.672 96.294 81.7811C96.4826 80.8429 96.6148 80.0903 96.6974 79.5896C96.7387 79.3398 96.7674 79.154 96.7844 79.0407C96.7929 78.9841 96.7984 78.9458 96.8012 78.9267C96.802 78.9208 96.8026 78.9168 96.8029 78.9146C97.5572 73.4501 102.595 69.6273 108.063 70.3743Z" fill="#4B332B"/>
<path fill-rule="evenodd" clip-rule="evenodd" d="M167.024 70.092C161.552 70.8396 157.722 75.8816 158.469 81.3536L168.377 80C158.469 81.3536 158.47 81.3556 158.47 81.3577L158.472 81.3731L158.476 81.4006L158.487 81.479C158.496 81.5416 158.508 81.6246 158.523 81.7269C158.554 81.9315 158.598 82.2139 158.656 82.5653C158.772 83.2671 158.945 84.249 159.184 85.4395C159.66 87.8059 160.411 91.0693 161.517 94.6319C163.527 101.108 167.437 111.089 175.005 116.915C180.662 121.27 188.39 123.288 193.408 124.294C196.148 124.843 198.604 125.187 200.377 125.394C201.268 125.498 202 125.569 202.524 125.615C202.786 125.639 202.997 125.656 203.151 125.667C203.228 125.673 203.291 125.678 203.339 125.681L203.399 125.685L203.421 125.687L203.433 125.688C203.433 125.688 203.437 125.688 204.086 115.709L203.437 125.688C208.948 126.047 213.706 121.87 214.065 116.358C214.424 110.852 210.254 106.097 204.75 105.731L204.739 105.73L204.742 105.73L204.668 105.725C204.591 105.719 204.46 105.709 204.282 105.693C203.925 105.661 203.382 105.609 202.698 105.529C201.32 105.368 199.42 105.101 197.34 104.684C192.72 103.758 188.957 102.416 187.206 101.068C184.976 99.3511 182.522 94.836 180.618 88.7023C179.766 85.96 179.172 83.3898 178.792 81.4989C178.604 80.5607 178.472 79.8081 178.389 79.3074C178.348 79.0575 178.319 78.8718 178.302 78.7585C178.293 78.7019 178.288 78.6636 178.285 78.6445C178.284 78.6386 178.284 78.6345 178.283 78.6324C177.529 73.1679 172.491 69.3451 167.024 70.092Z" fill="#4B332B"/>
<path fill-rule="evenodd" clip-rule="evenodd" d="M157.142 166.407C161.237 162.898 167.378 163.267 171.022 167.243L193.022 191.243C196.754 195.314 196.479 201.64 192.408 205.372C188.336 209.103 182.011 208.828 178.279 204.757L162.815 187.887L142.158 205.593C137.995 209.161 131.735 208.711 128.125 204.585L113.761 188.17L94.294 205.474C90.1661 209.143 83.8454 208.771 80.1762 204.644C76.5071 200.516 76.8789 194.195 81.0067 190.526L108.007 166.526C109.999 164.755 112.616 163.853 115.277 164.02C117.937 164.187 120.421 165.409 122.176 167.415L136.658 183.966L157.142 166.407Z" fill="#4B332B"/>
</svg>
