<svg width="277" height="277" viewBox="0 0 277 277" fill="none" xmlns="http://www.w3.org/2000/svg">
<path d="M277 138.5C277 214.991 214.991 277 138.5 277C62.0086 277 0 214.991 0 138.5C0 62.0086 62.0086 0 138.5 0C214.991 0 277 62.0086 277 138.5Z" fill="#FDCD8A"/>
<path fill-rule="evenodd" clip-rule="evenodd" d="M88 61C93.5229 61 98 65.4771 98 71V121.5C98 127.023 93.5229 131.5 88 131.5C82.4771 131.5 78 127.023 78 121.5V71C78 65.4771 82.4771 61 88 61Z" fill="#4B332B"/>
<path fill-rule="evenodd" clip-rule="evenodd" d="M189 61C194.523 61 199 65.4771 199 71V121.5C199 127.023 194.523 131.5 189 131.5C183.477 131.5 179 127.023 179 121.5V71C179 65.4771 183.477 61 189 61Z" fill="#4B332B"/>
<path fill-rule="evenodd" clip-rule="evenodd" d="M96 181C87.9537 186.938 87.9551 186.94 87.9565 186.942L87.966 186.954L87.9808 186.974L88.0177 187.024C88.0455 187.061 88.0799 187.106 88.1208 187.16C88.2026 187.267 88.3103 187.407 88.4437 187.576C88.7102 187.914 89.0799 188.372 89.5495 188.926C90.4868 190.031 91.832 191.533 93.5588 193.244C96.9876 196.642 102.056 200.999 108.56 204.695C117.774 209.929 130.517 213 140 213C149.645 213 161.738 209.959 170.965 204.68C177.332 201.038 182.47 196.74 185.984 193.41C187.757 191.731 189.156 190.26 190.133 189.183C190.622 188.644 191.008 188.201 191.284 187.877C191.423 187.715 191.534 187.582 191.617 187.482C191.658 187.432 191.693 187.389 191.721 187.356L191.757 187.312L191.771 187.294L191.779 187.283C191.781 187.282 191.782 187.28 184 181L191.782 187.28C195.25 182.982 194.578 176.687 190.28 173.218C185.99 169.756 179.708 170.42 176.236 174.698C176.233 174.701 176.228 174.708 176.22 174.718C176.194 174.748 176.143 174.809 176.067 174.898C175.915 175.077 175.665 175.365 175.322 175.743C174.635 176.5 173.587 177.605 172.228 178.892C169.479 181.497 165.617 184.699 161.035 187.32C154.875 190.844 146.212 193 140 193C133.805 193 124.493 190.744 118.44 187.305C113.87 184.709 110.189 181.567 107.636 179.037C106.372 177.785 105.419 176.716 104.805 175.992C104.499 175.631 104.28 175.359 104.152 175.197C104.088 175.115 104.047 175.062 104.029 175.039C104.026 175.035 104.024 175.032 104.022 175.029C100.736 170.614 94.4952 169.682 90.0623 172.954C85.6184 176.233 84.6743 182.494 87.9537 186.938L96 181Z" fill="#4B332B"/>
</svg>
