<svg width="277" height="277" viewBox="0 0 277 277" fill="none" xmlns="http://www.w3.org/2000/svg">
<path d="M277 138.5C277 214.991 214.991 277 138.5 277C62.0086 277 0 214.991 0 138.5C0 62.0086 62.0086 0 138.5 0C214.991 0 277 62.0086 277 138.5Z" fill="#B0CFFA"/>
<path fill-rule="evenodd" clip-rule="evenodd" d="M88 61C93.5228 61 98 65.4772 98 71V121.5C98 127.023 93.5228 131.5 88 131.5C82.4772 131.5 78 127.023 78 121.5V71C78 65.4772 82.4772 61 88 61ZM189 61C194.523 61 199 65.4772 199 71V121.5C199 127.023 194.523 131.5 189 131.5C183.477 131.5 179 127.023 179 121.5V71C179 65.4772 183.477 61 189 61ZM108.035 168.32C117.262 163.041 129.355 160 139 160C148.483 160 161.226 163.071 170.44 168.305C176.944 172.001 182.012 176.358 185.441 179.756C187.168 181.467 188.513 182.969 189.451 184.074C189.92 184.628 190.29 185.086 190.556 185.424C190.628 185.515 190.692 185.597 190.749 185.67C190.798 185.734 190.841 185.79 190.879 185.84C190.895 185.861 190.911 185.881 190.925 185.9C190.946 185.929 190.966 185.954 190.982 185.976L191.019 186.026L191.034 186.046L191.043 186.058C191.045 186.06 191.046 186.062 183 192L191.046 186.062C194.326 190.506 193.382 196.767 188.938 200.046C184.505 203.318 178.264 202.386 174.978 197.97C174.976 197.968 174.974 197.965 174.971 197.961C174.953 197.938 174.912 197.885 174.848 197.803C174.72 197.641 174.501 197.369 174.195 197.008C173.581 196.284 172.628 195.215 171.364 193.963C168.811 191.433 165.13 188.291 160.56 185.695C154.507 182.256 145.195 180 139 180C132.788 180 124.125 182.156 117.965 185.68C113.383 188.301 109.521 191.503 106.772 194.108C105.413 195.395 104.365 196.5 103.678 197.257C103.335 197.635 103.085 197.923 102.933 198.102C102.857 198.191 102.806 198.252 102.78 198.282C102.772 198.292 102.767 198.299 102.764 198.302C99.2917 202.58 93.0102 203.244 88.7198 199.782C84.4219 196.313 83.7496 190.018 87.218 185.72L94.9095 191.927C87.2181 185.72 87.2193 185.718 87.2206 185.717L87.2234 185.713L87.2294 185.706L87.2434 185.688L87.2795 185.644C87.307 185.611 87.3416 185.568 87.3832 185.518C87.4664 185.418 87.5775 185.285 87.7157 185.123C87.9921 184.799 88.3781 184.356 88.8674 183.817C89.8443 182.74 91.2434 181.269 93.0159 179.59C96.53 176.26 101.668 171.962 108.035 168.32ZM174.956 197.941L174.958 197.944Z" fill="#4B332B"/>
</svg>
