<svg width="277" height="277" viewBox="0 0 277 277" fill="none" xmlns="http://www.w3.org/2000/svg">
<path d="M277 138.5C277 214.991 214.991 277 138.5 277C62.0086 277 0 214.991 0 138.5C0 62.0086 62.0086 0 138.5 0C214.991 0 277 62.0086 277 138.5Z" fill="#FA9183"/>
<path fill-rule="evenodd" clip-rule="evenodd" d="M51.7281 88.7046C50.9035 83.2437 54.662 78.1483 60.123 77.3237L61.616 87.2116C60.123 77.3237 60.125 77.3234 60.1271 77.3231L60.1425 77.3208L60.1699 77.3167L60.2483 77.3053C60.3108 77.2962 60.3939 77.2845 60.4964 77.2704C60.7014 77.2422 60.9847 77.2047 61.3381 77.1613C62.0441 77.0748 63.0351 76.9643 64.2448 76.8584C66.6493 76.6479 69.992 76.4489 73.7219 76.5063C80.5023 76.6104 91.1801 77.5495 98.9029 83.1693C102.273 85.6219 104.949 88.8612 106.955 91.7428C109.616 95.5651 111.693 99.6299 113.07 102.606C113.771 104.123 114.321 105.424 114.701 106.36C114.891 106.829 115.04 107.21 115.146 107.485C115.199 107.623 115.241 107.734 115.272 107.817L115.31 107.919L115.323 107.954L115.33 107.975C115.33 107.975 115.331 107.977 105.94 111.412C115.87 112.589 115.87 112.591 115.87 112.593L115.868 112.609L115.865 112.633L115.857 112.696C115.851 112.743 115.843 112.803 115.834 112.873C115.815 113.014 115.789 113.199 115.755 113.423C115.688 113.87 115.587 114.48 115.447 115.207C115.17 116.636 114.716 118.632 114.004 120.78C113.311 122.87 112.254 125.476 110.629 127.912C109.041 130.292 106.378 133.299 102.21 134.838C93.8238 137.932 86.6889 133.381 83.1912 129.731C81.2623 127.718 79.6268 125.247 78.6153 122.544C77.6758 120.033 76.8425 116.103 78.3722 111.979C79.0953 110.029 80.4125 107.687 81.475 105.876C82.6719 103.837 84.0794 101.589 85.3934 99.5402C85.5854 99.241 85.7762 98.9447 85.965 98.6526C83.3609 97.3896 78.8972 96.5881 73.4146 96.5039C70.5435 96.4598 67.9101 96.6141 65.9887 96.7822C65.0354 96.8657 64.276 96.9509 63.7724 97.0126C63.521 97.0435 63.3346 97.0683 63.2212 97.0839C63.1645 97.0917 63.1261 97.0972 63.1071 97.0999C63.0985 97.1011 63.0932 97.1019 63.0932 97.1019L63.1053 97.1001C63.1053 97.1001 63.1089 97.0996 61.6475 87.4203L63.109 97.0996C57.648 97.9241 52.5526 94.1656 51.7281 88.7046ZM93.8859 116.955C93.8859 116.955 93.8963 116.941 93.9183 116.916C93.8971 116.944 93.8859 116.955 93.8859 116.955ZM105.94 111.412L115.87 112.589C116.055 111.03 115.87 109.451 115.331 107.977L105.94 111.412Z" fill="#4B332B"/>
<path fill-rule="evenodd" clip-rule="evenodd" d="M224.393 89.6607C225.218 84.1997 221.459 79.1043 215.998 78.2798L214.505 88.1677C215.998 78.2798 215.996 78.2795 215.994 78.2792L215.979 78.2768L215.951 78.2728L215.873 78.2613C215.81 78.2523 215.727 78.2405 215.625 78.2264C215.42 78.1982 215.136 78.1607 214.783 78.1174C214.077 78.0308 213.086 77.9203 211.876 77.8145C209.472 77.604 206.129 77.405 202.399 77.4623C195.619 77.5665 184.941 78.5055 177.218 84.1253C173.848 86.578 171.172 89.8172 169.166 92.6989C166.505 96.5212 164.428 100.586 163.051 103.562C162.35 105.079 161.8 106.38 161.42 107.316C161.23 107.785 161.081 108.166 160.975 108.441C160.922 108.579 160.88 108.69 160.849 108.773L160.811 108.875L160.798 108.91L160.791 108.931C160.791 108.931 160.79 108.933 170.181 112.368C160.251 113.545 160.251 113.547 160.251 113.549L160.253 113.565L160.256 113.589L160.264 113.652C160.27 113.7 160.278 113.759 160.287 113.829C160.306 113.97 160.332 114.155 160.366 114.379C160.433 114.826 160.534 115.437 160.674 116.163C160.951 117.592 161.405 119.589 162.117 121.736C162.81 123.826 163.867 126.432 165.492 128.868C167.08 131.248 169.743 134.255 173.911 135.794C182.297 138.888 189.432 134.337 192.93 130.687C194.859 128.674 196.494 126.203 197.506 123.5C198.445 120.989 199.279 117.059 197.749 112.935C197.026 110.985 195.709 108.643 194.646 106.832C193.449 104.793 192.042 102.545 190.728 100.496C190.536 100.197 190.345 99.9008 190.156 99.6086C192.76 98.3457 197.224 97.5442 202.706 97.4599C205.578 97.4158 208.211 97.5701 210.132 97.7383C211.086 97.8217 211.845 97.9069 212.349 97.9687C212.6 97.9995 212.786 98.0243 212.9 98.0399C212.957 98.0477 212.995 98.0532 213.014 98.056C213.022 98.0572 213.028 98.058 213.028 98.058L213.016 98.0562C213.016 98.0562 213.012 98.0556 214.474 88.3764L213.012 98.0556C218.473 98.8802 223.568 95.1216 224.393 89.6607ZM182.235 117.912C182.235 117.912 182.225 117.897 182.203 117.872C182.224 117.9 182.235 117.912 182.235 117.912ZM170.181 112.368L160.251 113.545C160.066 111.987 160.251 110.407 160.79 108.933L170.181 112.368Z" fill="#4B332B"/>
<path fill-rule="evenodd" clip-rule="evenodd" d="M182 202C190.046 196.062 190.045 196.06 190.043 196.058L190.034 196.046L190.019 196.026L189.982 195.976C189.954 195.939 189.92 195.894 189.879 195.84C189.797 195.733 189.69 195.593 189.556 195.424C189.29 195.086 188.92 194.628 188.451 194.074C187.513 192.969 186.168 191.467 184.441 189.756C181.012 186.358 175.944 182.001 169.44 178.305C160.226 173.071 147.483 170 138 170C128.355 170 116.262 173.041 107.035 178.32C100.668 181.962 95.53 186.26 92.0158 189.59C90.2434 191.269 88.8442 192.74 87.8673 193.817C87.378 194.356 86.9921 194.799 86.7157 195.123C86.5774 195.285 86.4663 195.418 86.3832 195.518C86.3416 195.568 86.307 195.611 86.2794 195.644L86.2434 195.688L86.2294 195.706L86.2206 195.717C86.2193 195.718 86.218 195.72 94 202L86.218 195.72C82.7495 200.018 83.4219 206.313 87.7197 209.782C92.0102 213.244 98.2919 212.58 101.764 208.302C101.767 208.299 101.772 208.292 101.78 208.282C101.806 208.252 101.857 208.191 101.933 208.102C102.085 207.923 102.335 207.635 102.678 207.257C103.365 206.5 104.413 205.395 105.772 204.108C108.521 201.503 112.383 198.301 116.965 195.68C123.125 192.156 131.788 190 138 190C144.195 190 153.507 192.256 159.56 195.695C164.129 198.291 167.811 201.433 170.364 203.963C171.628 205.215 172.581 206.284 173.195 207.008C173.501 207.369 173.72 207.641 173.848 207.803C173.912 207.885 173.953 207.938 173.971 207.961C173.974 207.965 173.976 207.968 173.978 207.971C177.264 212.386 183.505 213.318 187.938 210.046C192.382 206.767 193.326 200.506 190.046 196.062L182 202Z" fill="#4B332B"/>
</svg>
