<svg width="277" height="277" viewBox="0 0 277 277" fill="none" xmlns="http://www.w3.org/2000/svg">
<path d="M277 138.5C277 214.991 214.991 277 138.5 277C62.0086 277 0 214.991 0 138.5C0 62.0086 62.0086 0 138.5 0C214.991 0 277 62.0086 277 138.5Z" fill="#CDAFFF"/>
<path fill-rule="evenodd" clip-rule="evenodd" d="M107.912 69.3741C113.384 70.1217 117.214 75.1637 116.467 80.6357L106.559 79.2821C116.467 80.6357 116.466 80.6377 116.466 80.6398L116.464 80.6552L116.46 80.6827L116.449 80.7611C116.44 80.8237 116.428 80.9067 116.412 81.009C116.382 81.2136 116.338 81.496 116.28 81.8474C116.164 82.5492 115.991 83.5311 115.752 84.7216C115.276 87.088 114.525 90.3514 113.419 93.914C111.409 100.39 107.499 110.371 99.9309 116.197C94.2739 120.552 86.5458 122.57 81.528 123.576C78.7883 124.125 76.332 124.469 74.5594 124.676C73.6679 124.78 72.9362 124.851 72.4124 124.898C72.1502 124.921 71.9391 124.938 71.7851 124.949C71.7081 124.955 71.6453 124.96 71.5974 124.963L71.5369 124.967L71.5151 124.969L71.5027 124.97C71.5027 124.97 71.4992 124.97 70.8496 114.991L71.4992 124.97C65.988 125.329 61.2295 121.152 60.8708 115.641C60.5123 110.134 64.682 105.379 70.1864 105.013L70.197 105.012L70.1943 105.012L70.2676 105.007C70.3453 105.001 70.476 104.991 70.6541 104.975C71.0108 104.944 71.5535 104.891 72.2377 104.811C73.6163 104.65 75.5162 104.383 77.5956 103.966C82.216 103.04 85.9784 101.698 87.7304 100.35C89.9599 98.6332 92.4142 94.1181 94.3183 87.9845C95.1696 85.2421 95.7636 82.6719 96.1436 80.781C96.3322 79.8428 96.4644 79.0902 96.5471 78.5895C96.5883 78.3396 96.617 78.1539 96.634 78.0406C96.6425 77.984 96.6481 77.9457 96.6508 77.9266C96.6516 77.9207 96.6522 77.9166 96.6525 77.9145C97.4068 72.45 102.445 68.6272 107.912 69.3741Z" fill="#4B332B"/>
<path fill-rule="evenodd" clip-rule="evenodd" d="M167.873 69.092C162.401 69.8396 158.571 74.8816 159.319 80.3536L169.227 79C159.319 80.3536 159.319 80.3556 159.319 80.3577L159.321 80.3731L159.325 80.4006L159.336 80.479C159.345 80.5416 159.357 80.6246 159.373 80.7269C159.403 80.9315 159.447 81.2139 159.505 81.5653C159.621 82.2671 159.794 83.249 160.033 84.4395C160.509 86.8059 161.26 90.0693 162.366 93.6319C164.376 100.108 168.286 110.089 175.854 115.915C181.511 120.27 189.239 122.288 194.257 123.294C196.997 123.843 199.453 124.187 201.226 124.394C202.117 124.498 202.849 124.569 203.373 124.615C203.635 124.639 203.846 124.656 204 124.667C204.077 124.673 204.14 124.678 204.188 124.681L204.248 124.685L204.27 124.687L204.282 124.688C204.282 124.688 204.286 124.688 204.935 114.709L204.286 124.688C209.797 125.047 214.556 120.87 214.914 115.358C215.273 109.852 211.103 105.097 205.599 104.731L205.588 104.73L205.591 104.73L205.517 104.725C205.44 104.719 205.309 104.709 205.131 104.693C204.774 104.661 204.232 104.609 203.547 104.529C202.169 104.368 200.269 104.101 198.189 103.684C193.569 102.758 189.807 101.416 188.055 100.068C185.825 98.3511 183.371 93.836 181.467 87.7023C180.615 84.96 180.021 82.3898 179.641 80.4989C179.453 79.5607 179.321 78.8081 179.238 78.3074C179.197 78.0575 179.168 77.8718 179.151 77.7585C179.143 77.7019 179.137 77.6636 179.134 77.6445C179.133 77.6386 179.133 77.6345 179.133 77.6324C178.378 72.1679 173.34 68.3451 167.873 69.092Z" fill="#4B332B"/>
<path fill-rule="evenodd" clip-rule="evenodd" d="M199.961 167.561C202.412 172.51 200.388 178.51 195.439 180.961C186.232 185.521 183.032 188.424 179.663 191.48C179.598 191.539 179.533 191.599 179.467 191.658C175.106 195.612 170.447 199.761 158.939 205.461C152.238 208.78 145.864 209.969 139.819 209.521C133.887 209.08 128.901 207.107 124.901 205.062C122.911 204.044 121.08 202.963 119.506 202.013C119.093 201.764 118.707 201.53 118.341 201.308C117.221 200.628 116.285 200.06 115.339 199.528C112.827 198.113 111.991 198.007 111.934 198C111.931 198 111.932 198 111.932 198C109.051 197.98 104.411 199.577 99.4608 202.118C97.2077 203.275 95.2356 204.444 93.828 205.325C93.1289 205.763 92.5808 206.122 92.2202 206.363C92.0402 206.483 91.9078 206.573 91.8275 206.628C91.7874 206.656 91.7604 206.674 91.7471 206.684C91.7433 206.686 91.7391 206.689 91.7391 206.689C87.2209 209.856 80.9905 208.765 77.8177 204.249C74.6426 199.73 75.732 193.493 80.2509 190.318L85.9999 198.5C80.2509 190.318 80.2539 190.316 80.2539 190.316L80.2648 190.308L80.2843 190.294L80.3398 190.256C80.3841 190.225 80.443 190.184 80.5158 190.134C80.6613 190.035 80.8629 189.898 81.1158 189.729C81.621 189.391 82.3343 188.925 83.2171 188.372C84.9736 187.273 87.4484 185.804 90.3265 184.326C95.6389 181.599 103.999 177.945 112.068 178C117.485 178.037 122.096 180.38 125.153 182.101C126.41 182.809 127.728 183.609 128.906 184.324C129.228 184.519 129.539 184.708 129.836 184.888C131.318 185.782 132.663 186.568 134.007 187.255C136.674 188.619 138.987 189.404 141.3 189.576C143.5 189.739 146.315 189.395 150.061 187.539C159.267 182.979 162.468 180.076 165.836 177.02C165.902 176.961 165.967 176.901 166.033 176.842C170.394 172.888 175.053 168.739 186.561 163.039C191.51 160.588 197.51 162.612 199.961 167.561Z" fill="#4B332B"/>
</svg>
