<svg width="764" height="55" viewBox="0 0 764 55" fill="none" xmlns="http://www.w3.org/2000/svg">
<path d="M49.458 28.0409L697.012 28.8595" stroke="#76675D" stroke-width="2" stroke-dasharray="2 7"/>
<rect x="0.679443" y="3.13159" width="48.2788" height="48.2788" rx="2.5" fill="white" stroke="#76675D"/>
<path d="M396.475 28.8153C395.499 27.8389 395.499 26.256 396.475 25.2797L401.115 20.6392L407.877 13.8773L421.047 0.707149L434.218 13.8773L440.979 20.6392L445.62 25.2797C446.596 26.256 446.596 27.8389 445.62 28.8153L434.218 40.2177L427.456 46.9795L422.815 51.6201C421.839 52.5964 420.256 52.5964 419.28 51.6201L396.475 28.8153Z" fill="white" stroke="#76675D"/>
<path d="M598.619 29.1369C597.643 28.1606 597.643 26.5777 598.619 25.6014L603.26 20.9608L610.022 14.199L623.192 1.0288L636.362 14.199L643.124 20.9608L647.764 25.6014C648.741 26.5777 648.741 28.1606 647.764 29.1369L636.362 40.5393L629.6 47.3012L623.192 53.7095L598.619 29.1369Z" fill="white" stroke="#76675D"/>
<path d="M142.897 27.3379L142.895 27.3691L142.897 27.4003L144.238 48.8525C144.328 50.2918 143.184 51.5085 141.742 51.5085H98.8504C97.4083 51.5085 96.2653 50.2918 96.3553 48.8525L97.696 27.4003L97.698 27.3691L97.696 27.3379L96.3553 5.88568C96.2653 4.44644 97.4083 3.22974 98.8504 3.22974H141.742C143.184 3.22974 144.328 4.44644 144.238 5.88568L142.897 27.3379Z" fill="white" stroke="#76675D"/>
<path d="M191.5 28.8465L215.639 4.70711L239.779 28.8465V39.499C239.779 40.8797 238.659 41.999 237.279 41.999H194C192.619 41.999 191.5 40.8797 191.5 39.499V28.8465Z" fill="white" stroke="#76675D"/>
<path d="M496.902 37.231L520.186 13.9466V41.4988H498.67C496.442 41.4988 495.327 38.8059 496.902 37.231ZM521.186 41.4988V13.9466L544.471 37.231C546.046 38.8059 544.93 41.4988 542.703 41.4988H521.186Z" fill="white" stroke="#76675D"/>
<path d="M717.038 24.846L730.121 10.3088L743.204 24.846H730.121H717.038ZM705.707 38.3206C704.799 38.3206 703.962 37.8284 703.521 37.0348L699.155 29.1751C698.229 27.5088 699.434 25.461 701.34 25.461L715.916 25.461C716.075 25.6935 716.343 25.846 716.646 25.846H730.121H743.596C743.899 25.846 744.166 25.6935 744.326 25.461L758.902 25.461C760.808 25.461 762.013 27.5088 761.087 29.1751L756.72 37.0348C756.28 37.8284 755.443 38.3206 754.535 38.3206H730.121H705.707Z" fill="white" stroke="#76675D"/>
<path d="M295.887 31.104L315.871 10.3799L335.855 31.104H315.871H295.887ZM289.612 46.1186C288.231 46.1186 287.112 44.9993 287.112 43.6186V34.219C287.112 32.8383 288.231 31.719 289.612 31.719L294.737 31.719C294.896 31.9515 295.164 32.104 295.467 32.104H315.871H336.276C336.579 32.104 336.847 31.9515 337.006 31.719L342.131 31.719C343.511 31.719 344.631 32.8383 344.631 34.219V43.6186C344.631 44.9993 343.511 46.1186 342.131 46.1186H315.871H289.612Z" fill="white" stroke="#76675D"/>
</svg>
