<svg width="64" height="30" viewBox="0 0 64 30" fill="none" xmlns="http://www.w3.org/2000/svg">
<path d="M19.0375 15.846L32.121 1.30882L45.2044 15.846H32.121H19.0375ZM7.70684 29.3206C6.79892 29.3206 5.96237 28.8284 5.52144 28.0348L1.15497 20.1751C0.229237 18.5088 1.43416 16.461 3.34037 16.461L17.916 16.461C18.0755 16.6935 18.3431 16.846 18.6463 16.846H32.121H45.5956C45.8989 16.846 46.1665 16.6935 46.3259 16.461L60.9016 16.461C62.8078 16.461 64.0127 18.5088 63.087 20.1751L58.7205 28.0348C58.2796 28.8284 57.443 29.3206 56.5351 29.3206H32.121H7.70684Z" fill="white" stroke="#76675D"/>
</svg>
