<svg width="52" height="53" viewBox="0 0 52 53" fill="none" xmlns="http://www.w3.org/2000/svg">
<path d="M32.8093 46.626L26.7546 40.5712L46.333 20.9927L50.62 25.2797C51.5963 26.256 51.5963 27.8389 50.62 28.8153L39.2176 40.2177L32.8093 46.626ZM45.6259 20.2856L26.5474 39.3641L26.5474 1.20715L39.2176 13.8773L45.6259 20.2856ZM32.1022 47.3331L27.8152 51.6201C26.8389 52.5964 25.256 52.5964 24.2797 51.6201L1.47487 28.8153C0.498564 27.8389 0.498563 26.256 1.47487 25.2797L5.76186 20.9927L25.6939 40.9248L32.1022 47.3331ZM6.46897 20.2856L12.8773 13.8773L25.5474 1.20715V39.3641L6.46897 20.2856Z" fill="white" stroke="#76675D"/>
</svg>
